<svg xmlns="http://www.w3.org/2000/svg" width="29" height="15" viewBox="0 0 29 15">
  <g id="Group_21221" data-name="Group 21221" transform="translate(-268 -759)">
    <path id="ic_keyboard_24px" d="M20,5H4A2,2,0,0,0,2.01,7L2,17a2.006,2.006,0,0,0,2,2H20a2.006,2.006,0,0,0,2-2V7A2.006,2.006,0,0,0,20,5ZM11,8h2v2H11Zm0,3h2v2H11ZM8,8h2v2H8Zm0,3h2v2H8ZM7,13H5V11H7Zm0-3H5V8H7Zm9,7H8V15h8Zm0-4H14V11h2Zm0-3H14V8h2Zm3,3H17V11h2Zm0-3H17V8h2Z" transform="translate(266 754)"/>
    <path id="Polygon_1" data-name="Polygon 1" d="M7.5,0,15,6H0Z" transform="translate(297 759) rotate(90)"/>
  </g>
</svg>
