<svg xmlns="http://www.w3.org/2000/svg" xmlns:xlink="http://www.w3.org/1999/xlink" width="54" height="54" viewBox="0 0 54 54">
  <defs>
    <filter id="Rectangle_105" x="0" y="0" width="54" height="54" filterUnits="userSpaceOnUse">
      <feOffset dx="1" dy="1" input="SourceAlpha"/>
      <feGaussianBlur stdDeviation="3" result="blur"/>
      <feFlood flood-opacity="0.161"/>
      <feComposite operator="in" in2="blur"/>
      <feComposite in="SourceGraphic"/>
    </filter>
    <clipPath id="clip-path">
      <rect width="17" height="17.001" fill="none"/>
    </clipPath>
  </defs>
  <g id="Group_84" data-name="Group 84" transform="translate(-1143 -4246)">
    <g transform="matrix(1, 0, 0, 1, 1143, 4246)" filter="url(#Rectangle_105)">
      <rect id="Rectangle_105-2" data-name="Rectangle 105" width="36" height="36" rx="18" transform="translate(8 8)" fill="#fff"/>
    </g>
    <g id="_Icons_1_Search" data-name="_Icons / 1 Search" transform="translate(1161 4263)" clip-path="url(#clip-path)">
      <path id="_1_Search" data-name="1 Search" d="M14.975,17a2.014,2.014,0,0,1-1.433-.593L10.8,13.664A7.284,7.284,0,1,1,13.664,10.8l2.744,2.74A2.026,2.026,0,0,1,14.975,17ZM7.285,2.024a5.262,5.262,0,1,0,5.261,5.262A5.267,5.267,0,0,0,7.285,2.024Z" transform="translate(0 0)" fill="#707070"/>
    </g>
  </g>
</svg>
