<svg xmlns="http://www.w3.org/2000/svg" width="68" height="60.44" viewBox="0 0 68 60.44">
  <path id="_6_Paper_3" data-name="6 Paper_3" d="M58.555,60.44H9.445A12.318,12.318,0,0,1,2.766,58.6,5.538,5.538,0,0,1,0,54.144V6.3C0,2.825,4.237,0,9.445,0h28.2a12.144,12.144,0,0,1,6.667,1.839l20.93,13.953A5.532,5.532,0,0,1,68,20.236V54.144C68,57.615,63.763,60.44,58.555,60.44ZM22.668,42.813c-2.083,0-3.778,1.13-3.778,2.519s1.695,2.519,3.778,2.519H45.332c2.083,0,3.778-1.13,3.778-2.519s-1.695-2.519-3.778-2.519Zm0-11.334c-2.083,0-3.778,1.13-3.778,2.519s1.695,2.519,3.778,2.519H35.887c2.083,0,3.778-1.13,3.778-2.519s-1.695-2.519-3.778-2.519ZM37.774,5.558a2.7,2.7,0,0,0-.712.094c-.71.194-1.171.65-1.175,1.161v8.3c0,3.47,4.237,6.294,9.445,6.294H57.78a2.041,2.041,0,0,0,1.742-.781.981.981,0,0,0-.42-1.371L39.118,5.932A2.465,2.465,0,0,0,37.774,5.558Z" fill="#00a050"/>
</svg>
