<svg xmlns="http://www.w3.org/2000/svg" width="65" height="50.546" viewBox="0 0 65 50.546">
  <path id="Icon_awesome-home" data-name="Icon awesome-home" d="M31.637,15.366,10.833,32.5V50.994A1.805,1.805,0,0,0,12.639,52.8l12.645-.033a1.805,1.805,0,0,0,1.8-1.805v-10.8a1.805,1.805,0,0,1,1.805-1.805h7.222a1.805,1.805,0,0,1,1.805,1.805V50.953a1.805,1.805,0,0,0,1.805,1.811l12.64.035a1.805,1.805,0,0,0,1.805-1.805V32.489l-20.8-17.122A1.375,1.375,0,0,0,31.637,15.366ZM64.5,27.013l-9.433-7.776V3.608a1.354,1.354,0,0,0-1.354-1.354H47.393a1.354,1.354,0,0,0-1.354,1.354V11.8l-10.1-8.312a5.416,5.416,0,0,0-6.883,0L.49,27.013A1.354,1.354,0,0,0,.31,28.92l2.877,3.5A1.354,1.354,0,0,0,5.1,32.6L31.637,10.74a1.376,1.376,0,0,1,1.726,0L59.907,32.6a1.354,1.354,0,0,0,1.907-.181l2.877-3.5a1.354,1.354,0,0,0-.192-1.91Z" transform="translate(0.001 -2.254)" fill="#00a050"/>
</svg>
