<svg xmlns="http://www.w3.org/2000/svg" width="82.827" height="82.571" viewBox="0 0 82.827 82.571">
  <g id="Group_21224" data-name="Group 21224" transform="translate(-65 -248.429)">
    <path id="ic_settings_24px" d="M26.365,17.418a10.942,10.942,0,0,0,.1-1.376,10.943,10.943,0,0,0-.1-1.376l2.963-2.317a.708.708,0,0,0,.169-.9L26.688,6.592a.706.706,0,0,0-.857-.309l-3.5,1.4a10.259,10.259,0,0,0-2.373-1.376L19.429,2.59A.685.685,0,0,0,18.741,2H13.124a.685.685,0,0,0-.688.59L11.9,6.311A10.788,10.788,0,0,0,9.529,7.687l-3.5-1.4a.685.685,0,0,0-.857.309L2.368,11.45a.692.692,0,0,0,.168.9L5.5,14.666a11.136,11.136,0,0,0-.1,1.376,11.136,11.136,0,0,0,.1,1.376L2.537,19.735a.708.708,0,0,0-.168.9l2.808,4.858a.706.706,0,0,0,.857.309l3.5-1.4A10.259,10.259,0,0,0,11.9,25.773l.534,3.721a.685.685,0,0,0,.688.59h5.617a.685.685,0,0,0,.688-.59l.534-3.721A10.788,10.788,0,0,0,22.335,24.4l3.5,1.4a.685.685,0,0,0,.857-.309L29.5,20.633a.708.708,0,0,0-.169-.9ZM15.932,20.956a4.915,4.915,0,1,1,4.915-4.915A4.92,4.92,0,0,1,15.932,20.956Z" transform="matrix(0.966, 0.259, -0.259, 0.966, 119.766, 284.342)"/>
    <path id="ic_get_app_24px" d="M73,32.143H53.571V3H24.429V32.143H5l34,34ZM5,75.857v9.714H73V75.857Z" transform="translate(60 245.429)" fill="#00a050"/>
  </g>
</svg>
