<svg xmlns="http://www.w3.org/2000/svg" width="65" height="48.75" viewBox="0 0 65 48.75">
  <path id="Icon_awesome-chart-line" data-name="Icon awesome-chart-line" d="M62.969,45.125H8.125V6.531A2.031,2.031,0,0,0,6.094,4.5H2.031A2.031,2.031,0,0,0,0,6.531V49.188A4.063,4.063,0,0,0,4.063,53.25H62.969A2.031,2.031,0,0,0,65,51.219V47.156A2.031,2.031,0,0,0,62.969,45.125ZM58.906,8.563H43.918a3.047,3.047,0,0,0-2.154,5.2l4.113,4.113-9.315,9.316-9.315-9.315a4.061,4.061,0,0,0-5.745,0l-8.72,8.72a2.031,2.031,0,0,0,0,2.873l2.872,2.872a2.031,2.031,0,0,0,2.873,0l5.847-5.849,9.315,9.315a4.061,4.061,0,0,0,5.745,0L51.622,23.622l4.113,4.113a3.047,3.047,0,0,0,5.2-2.154V10.594A2.029,2.029,0,0,0,58.906,8.563Z" transform="translate(0 -4.5)" fill="#00a050"/>
</svg>
