<svg xmlns="http://www.w3.org/2000/svg" width="62.913" height="62.913" viewBox="0 0 62.913 62.913">
  <path id="ic_settings_24px" d="M57.762,36.539a23.855,23.855,0,0,0,.226-3.083,23.857,23.857,0,0,0-.226-3.083l6.823-5.19a1.558,1.558,0,0,0,.388-2.013L58.506,12.286a1.647,1.647,0,0,0-1.973-.692L48.481,14.74a23.8,23.8,0,0,0-5.465-3.083L41.786,3.321A1.564,1.564,0,0,0,40.2,2H27.266a1.564,1.564,0,0,0-1.585,1.321l-1.229,8.336a25.022,25.022,0,0,0-5.465,3.083l-8.052-3.146a1.6,1.6,0,0,0-1.973.692L2.495,23.17a1.523,1.523,0,0,0,.388,2.013l6.823,5.19a24.278,24.278,0,0,0-.226,3.083,24.278,24.278,0,0,0,.226,3.083l-6.823,5.19a1.558,1.558,0,0,0-.388,2.013L8.963,54.626a1.647,1.647,0,0,0,1.973.692l8.052-3.146a23.8,23.8,0,0,0,5.465,3.083l1.229,8.336a1.564,1.564,0,0,0,1.585,1.321H40.2a1.564,1.564,0,0,0,1.585-1.321l1.229-8.336a25.022,25.022,0,0,0,5.465-3.083l8.052,3.146a1.6,1.6,0,0,0,1.973-.692l6.468-10.884a1.558,1.558,0,0,0-.388-2.013ZM33.734,44.466a11.18,11.18,0,0,1-11.319-11.01,11.323,11.323,0,0,1,22.637,0A11.18,11.18,0,0,1,33.734,44.466Z" transform="translate(-2.271 -2)" fill="#00a050"/>
</svg>
