<svg xmlns="http://www.w3.org/2000/svg" width="77.654" height="72" viewBox="0 0 77.654 72">
  <g id="Group_21225" data-name="Group 21225" transform="translate(-66.346 -438)">
    <path id="ic_extension_24px" d="M60.719,32.74H55.958v-12.7A6.367,6.367,0,0,0,49.61,13.7h-12.7V8.935a7.935,7.935,0,0,0-15.87,0V13.7H8.348a6.34,6.34,0,0,0-6.316,6.348V32.105H6.761a8.57,8.57,0,0,1,0,17.14H2V61.306a6.367,6.367,0,0,0,6.348,6.348H20.409V62.893a8.57,8.57,0,1,1,17.14,0v4.761H49.61a6.367,6.367,0,0,0,6.348-6.348V48.61h4.761a7.935,7.935,0,0,0,0-15.87Z" transform="translate(64.346 442.346)" fill="#00a050"/>
    <g id="Group_21168" data-name="Group 21168" transform="translate(-192.112 5.888)">
      <rect id="Rectangle_2388" data-name="Rectangle 2388" width="7" height="23" transform="translate(321.112 432.112)"/>
      <rect id="Rectangle_2389" data-name="Rectangle 2389" width="7" height="23" transform="translate(336.112 440.112) rotate(90)"/>
    </g>
  </g>
</svg>
