<svg xmlns="http://www.w3.org/2000/svg" width="81" height="57.773" viewBox="0 0 81 57.773">
  <g id="Group_21222" data-name="Group 21222" transform="translate(-245 -262.773)">
    <path id="Icon_material-import-export" data-name="Icon material-import-export" d="M13.5,4.5l-6,5.985H12V21h3V10.485h4.5ZM24,25.515V15H21V25.515H16.5l6,5.985,6-5.985Z" transform="translate(297.5 258.273)" fill="#00a050"/>
    <path id="Icon_awesome-warehouse" data-name="Icon awesome-warehouse" d="M51.188,35.749H13.853a.815.815,0,0,0-.812.813l-.01,4.875a.815.815,0,0,0,.813.813H51.188A.815.815,0,0,0,52,41.437V36.562A.815.815,0,0,0,51.188,35.749Zm0,9.75H13.823a.815.815,0,0,0-.812.813L13,51.187a.815.815,0,0,0,.813.813H51.188A.815.815,0,0,0,52,51.187V46.312A.815.815,0,0,0,51.188,45.5Zm0-19.5H13.873a.815.815,0,0,0-.812.813l-.01,4.875a.815.815,0,0,0,.813.813H51.188A.815.815,0,0,0,52,31.687V26.812A.815.815,0,0,0,51.188,26ZM62,11.882,34.369.375a4.89,4.89,0,0,0-3.748,0L3,11.882a4.887,4.887,0,0,0-3,4.5V51.187A.815.815,0,0,0,.813,52H8.938a.815.815,0,0,0,.813-.812V26a3.286,3.286,0,0,1,3.311-3.25H51.939A3.286,3.286,0,0,1,55.25,26V51.187a.815.815,0,0,0,.813.813h8.125A.815.815,0,0,0,65,51.187V16.381A4.887,4.887,0,0,0,62,11.882Z" transform="translate(245 268.547)" fill="#00a050"/>
  </g>
</svg>
