<svg xmlns="http://www.w3.org/2000/svg" width="68.399" height="76" viewBox="0 0 68.399 76">
  <g id="Group_21226" data-name="Group 21226" transform="translate(-242.8 -440)">
    <path id="Union_2" data-name="Union 2" d="M-3702.4,66a7.622,7.622,0,0,1-7.6-7.6V5.2a7.622,7.622,0,0,1,7.6-7.6h15.884A11.439,11.439,0,0,1-3675.8-10a11.439,11.439,0,0,1,10.716,7.6h15.884a7.622,7.622,0,0,1,7.6,7.6V58.4a7.622,7.622,0,0,1-7.6,7.6Zm22.8-64.6a3.812,3.812,0,0,0,3.8,3.8,3.812,3.812,0,0,0,3.8-3.8,3.812,3.812,0,0,0-3.8-3.8A3.812,3.812,0,0,0-3679.6,1.4Z" transform="translate(3952.8 450)" fill="#00a050"/>
    <path id="ic_get_app_24px" d="M47.041,19.539H35.029V3H17.012V19.539H5l21.021,19.3Z" transform="translate(303.021 506.519) rotate(180)" fill="#fff"/>
  </g>
</svg>
